# xmcd
#
# Track frame offsets: 
#        150
#        18254
#        36453
#        56570
#        67819
#        89053
#        104690
#        122768
#        143354
#        152002
#        167873
#        188659
#        206818
#        217591
#        229744
#        245765
#        258463
#        275720
#
# Disc length: 3928 seconds
#
# Revision: 0
# Processed by: cddbd v1.5.2PL0 Copyright (c) Steve Scherf et al.
# Submitted via: ExactAudioCopy v0.99pb3
#
DISCID=060f5612
DTITLE=Luu Hong (c) DucNV - Luu Hong dac biet
DYEAR=1900
DGENRE=Blues
TTITLE0=Moi tim
TTITLE1=Giang ngoc
TTITLE2=Pho dem
TTITLE3=Ngoi mot minh trong chieu vang
TTITLE4=Linh hon tuong da
TTITLE5=Lam sao ma quen duoc
TTITLE6=Ben dong nuoc
TTITLE7=Rung thong
TTITLE8=El bimbo
TTITLE9=Do tinh
TTITLE10=Sao em no danh quen
TTITLE11=Tinh la soi to
TTITLE12=Chuyen gian thien ly
TTITLE13=Mua tinh yeu
TTITLE14=Xin con goi ten nhau
TTITLE15=Toi yeu
TTITLE16=Ngay do
TTITLE17=Loi dan do
EXTD=
EXTT0=
EXTT1=
EXTT2=
EXTT3=
EXTT4=
EXTT5=
EXTT6=
EXTT7=
EXTT8=
EXTT9=
EXTT10=
EXTT11=
EXTT12=
EXTT13=
EXTT14=
EXTT15=
EXTT16=
EXTT17=
PLAYORDER=
